<svg width="9" height="13" viewBox="0 0 9 13" fill="none" xmlns="http://www.w3.org/2000/svg">
<path d="M4.66776 1.40063C4.66776 1.09683 4.42148 0.850555 4.11768 0.850555C3.81388 0.850555 3.5676 1.09683 3.5676 1.40063L4.66776 1.40063ZM3.72871 12.7912C3.94353 13.006 4.29182 13.006 4.50664 12.7912L8.00733 9.29051C8.22214 9.07569 8.22214 8.72739 8.00733 8.51258C7.79251 8.29776 7.44422 8.29776 7.2294 8.51258L4.11768 11.6243L1.00596 8.51258C0.791137 8.29776 0.442846 8.29776 0.228026 8.51258C0.0132073 8.7274 0.0132073 9.07569 0.228026 9.29051L3.72871 12.7912ZM4.11768 1.40063L3.5676 1.40063L3.5676 12.4022L4.11768 12.4022L4.66776 12.4022L4.66776 1.40063L4.11768 1.40063Z" fill="#001F5A"/>
</svg>
