<svg width="3500" height="98" viewBox="0 0 3500 98" fill="none" xmlns="http://www.w3.org/2000/svg">
<path d="M1826.66 18.9389C1903.33 18.9388 2087.17 -4.74863 2240.5 0.858794C2393.83 6.46623 2516.64 41.3686 2669.97 37.6303C2823.29 33.892 2976.62 15.2006 3129.95 15.2006C3283.28 15.2006 3423.34 33.685 3500 43.0307V97.8588C3423.34 97.8588 3283.28 97.4428 3129.95 97.4428H370.052C216.724 97.4428 76.6637 97.8588 0 97.8588V43.0307C76.6637 33.685 216.724 4.35884 370.052 4.35879C523.379 4.35879 676.708 33.892 830.035 37.6303C983.363 41.3685 1136.69 20.1762 1290.02 14.5688C1443.34 8.96135 1596.67 18.9389 1673.34 18.9389H1826.66Z" fill="#001F5A"/>
</svg>
