<svg width="3501" height="121" viewBox="0 0 3501 121" fill="none" xmlns="http://www.w3.org/2000/svg">
<path d="M3063.58 0.674676C3209.18 -4.21617 3354.79 23.0094 3427.59 27.9003L3500.39 32.7909V120.09H1752.93L1748.77 105.78V120.09H0.5V27.493L0.96582 27.4608C49.1946 24.7078 97.795 23.2506 146.047 27.4618C170.018 29.7789 193.917 32.0918 217.947 34.1483C291.06 40.4645 364.394 44.4409 437.834 46.9022C583.367 51.792 729.111 56.6831 874.609 49.3485C1020.68 41.9661 1165.1 15.0828 1311.44 10.1258C1396 7.3308 1480.65 11.6498 1564.91 18.3104C1601.82 21.1734 1638.7 24.7493 1675.5 27.3397C1695.05 28.6527 1714.59 29.9652 1734.14 31.2782L1825.93 35.2362C1898.73 37.6816 2005.51 41.6881 2151.11 46.579C2296.72 51.4698 2465.99 38.3088 2611.59 30.9725C2757.2 23.6362 2917.97 5.56553 3063.58 0.674676Z" fill="#2F60BF"/>
</svg>
